<svg xmlns="http://www.w3.org/2000/svg" xmlns:xlink="http://www.w3.org/1999/xlink" version="1.1" width="256" height="256" viewBox="0 0 256 256" xml:space="preserve">
<desc>Created with Fabric.js 1.7.22</desc>
<defs>
</defs>
<g transform="translate(128 128) scale(0.72 0.72)" style="">
	<g style="stroke: none; stroke-width: 0; stroke-dasharray: none; stroke-linecap: butt; stroke-linejoin: miter; stroke-miterlimit: 10; fill: none; fill-rule: nonzero; opacity: 1;" transform="translate(-175.05 -175.05000000000004) scale(3.89 3.89)" >
	<path d="M 88.931 70.183 l -9.327 -12.974 c -5.228 -7.654 -10.06 -16.813 -14.763 -26.461 c -0.411 -0.843 -1.365 -1.272 -2.268 -1.02 c -6.414 1.789 -12.195 0.208 -17.2 -5.494 c -0.127 -0.145 -0.239 -0.315 -0.323 -0.489 c -1.33 -2.772 -1.951 -5.242 -2.095 -7.509 c -0.072 -1.133 -1.06 -2.03 -2.181 -1.848 c -1.793 0.291 -3.934 1.803 -6.573 5.048 c -0.037 0.046 -0.074 0.095 -0.108 0.144 l -8.477 12.313 c -0.581 0.844 -0.408 1.994 0.395 2.63 l 2.663 2.108 l -1.133 2.289 c -0.259 0.523 -0.117 1.157 0.34 1.52 l 1.334 1.058 c 0.433 0.344 1.042 0.359 1.492 0.037 l 2.184 -1.565 l 3.341 2.645 l -1.081 2.184 c -0.259 0.524 -0.117 1.157 0.34 1.52 l 1.334 1.058 c 0.433 0.344 1.042 0.359 1.492 0.037 l 2.088 -1.496 l 15.533 12.299 c 2.058 1.486 4.104 2.868 6.141 4.186 c -0.007 0.02 -0.018 0.038 -0.024 0.059 l -0.634 2.245 c -0.138 0.49 0.084 1.01 0.535 1.248 l 1.312 0.694 c 0.426 0.225 0.95 0.141 1.284 -0.207 l 1.498 -1.562 c 1.11 0.664 2.217 1.301 3.322 1.916 l -0.489 1.732 c -0.138 0.49 0.084 1.01 0.535 1.248 l 1.312 0.694 c 0.426 0.225 0.95 0.141 1.284 -0.207 l 1.303 -1.359 c 1.246 0.634 2.489 1.241 3.728 1.815 l -0.522 1.848 c -0.138 0.49 0.084 1.01 0.535 1.248 l 1.312 0.694 c 0.426 0.225 0.95 0.141 1.284 -0.207 l 1.642 -1.712 c 0.004 -0.004 0.006 -0.009 0.01 -0.014 c 0.989 0.406 1.977 0.802 2.961 1.17 C 88.708 75.642 91.702 73.645 88.931 70.183 z" style="stroke: none; stroke-width: 1; stroke-dasharray: none; stroke-linecap: butt; stroke-linejoin: miter; stroke-miterlimit: 10; fill: rgb(247,62,66); fill-rule: nonzero; opacity: 1;" transform=" matrix(1 0 0 1 0 0) " stroke-linecap="round" />
	<path d="M 37.753 38.36 l -10.798 -8.408 c 0 0 7.211 -10.469 7.248 -10.515 C 39.505 25.064 41.528 31.233 37.753 38.36 z" style="stroke: none; stroke-width: 1; stroke-dasharray: none; stroke-linecap: butt; stroke-linejoin: miter; stroke-miterlimit: 10; fill: rgb(229,57,61); fill-rule: nonzero; opacity: 1;" transform=" matrix(1 0 0 1 0 0) " stroke-linecap="round" />
	<path d="M 89.185 70.536 c -0.863 -0.024 -1.885 -0.254 -2.997 -0.73 c -9.228 -3.449 -18.662 -8.551 -28.33 -15.528 L 27.932 30.584 c -0.353 -0.28 -0.577 -0.661 -0.676 -1.069 l -1.638 2.379 c -0.581 0.844 -0.408 1.994 0.395 2.63 l 2.663 2.108 l -1.133 2.289 c -0.259 0.523 -0.117 1.157 0.34 1.52 l 1.334 1.058 c 0.433 0.344 1.042 0.359 1.492 0.037 l 2.184 -1.565 l 3.341 2.645 l -1.081 2.184 c -0.259 0.524 -0.117 1.157 0.34 1.52 l 1.334 1.058 c 0.433 0.344 1.042 0.359 1.492 0.037 l 2.088 -1.496 l 15.533 12.299 c 2.058 1.486 4.104 2.868 6.141 4.186 c -0.007 0.02 -0.018 0.038 -0.024 0.059 l -0.634 2.245 c -0.138 0.49 0.084 1.01 0.535 1.248 l 1.312 0.694 c 0.426 0.225 0.95 0.141 1.284 -0.207 l 1.498 -1.562 c 1.11 0.664 2.217 1.301 3.322 1.916 l -0.489 1.732 c -0.138 0.49 0.084 1.01 0.535 1.248 l 1.312 0.694 c 0.426 0.225 0.95 0.141 1.284 -0.207 l 1.303 -1.359 c 1.246 0.634 2.489 1.241 3.728 1.815 l -0.522 1.848 c -0.138 0.49 0.084 1.01 0.535 1.248 l 1.312 0.694 c 0.426 0.225 0.95 0.141 1.284 -0.207 l 1.642 -1.712 c 0.004 -0.004 0.006 -0.009 0.01 -0.014 c 0.989 0.406 1.977 0.802 2.961 1.17 C 88.553 75.576 91.475 73.776 89.185 70.536 z" style="stroke: none; stroke-width: 1; stroke-dasharray: none; stroke-linecap: butt; stroke-linejoin: miter; stroke-miterlimit: 10; fill: rgb(87,89,93); fill-rule: nonzero; opacity: 1;" transform=" matrix(1 0 0 1 0 0) " stroke-linecap="round" />
	<path d="M 44.001 43.307 L 27.932 30.584 c -0.353 -0.28 -0.577 -0.661 -0.676 -1.069 l -1.638 2.379 c -0.581 0.844 -0.408 1.994 0.395 2.63 l 2.663 2.108 l -1.133 2.289 c -0.259 0.523 -0.117 1.157 0.34 1.52 l 1.334 1.058 c 0.433 0.344 1.042 0.359 1.492 0.037 l 2.184 -1.565 l 3.341 2.645 l -1.081 2.184 c -0.259 0.524 -0.117 1.157 0.34 1.52 l 1.334 1.058 c 0.433 0.344 1.042 0.359 1.492 0.037 l 2.088 -1.496 l 6.044 4.786 C 45.024 47.909 44.138 45.346 44.001 43.307 z" style="stroke: none; stroke-width: 1; stroke-dasharray: none; stroke-linecap: butt; stroke-linejoin: miter; stroke-miterlimit: 10; fill: rgb(63,64,66); fill-rule: nonzero; opacity: 1;" transform=" matrix(1 0 0 1 0 0) " stroke-linecap="round" />
	<path d="M 79.617 57.235 c -5.228 -7.654 -10.06 -16.813 -14.763 -26.461 c -0.411 -0.843 -1.365 -1.272 -2.268 -1.02 c -1.608 0.448 -3.175 0.685 -4.701 0.698 c 3.237 8.045 10.696 17.367 19.831 27.197 C 79.174 59.174 80.273 58.149 79.617 57.235 z" style="stroke: none; stroke-width: 1; stroke-dasharray: none; stroke-linecap: butt; stroke-linejoin: miter; stroke-miterlimit: 10; fill: rgb(229,57,61); fill-rule: nonzero; opacity: 1;" transform=" matrix(1 0 0 1 0 0) " stroke-linecap="round" />
	<circle cx="52.607" cy="39.287" r="5.367" style="stroke: none; stroke-width: 1; stroke-dasharray: none; stroke-linecap: butt; stroke-linejoin: miter; stroke-miterlimit: 10; fill: rgb(229,57,61); fill-rule: nonzero; opacity: 1;" transform="  matrix(1 0 0 1 0 0) "/>
	<path d="M 64.889 37.901 c -0.499 0 -0.931 -0.373 -0.992 -0.881 c -0.065 -0.548 0.325 -1.046 0.874 -1.112 l 2.725 -0.328 c 0.544 -0.062 1.046 0.326 1.112 0.874 c 0.065 0.548 -0.325 1.046 -0.874 1.112 l -2.725 0.328 C 64.969 37.899 64.929 37.901 64.889 37.901 z" style="stroke: none; stroke-width: 1; stroke-dasharray: none; stroke-linecap: butt; stroke-linejoin: miter; stroke-miterlimit: 10; fill: rgb(63,64,66); fill-rule: nonzero; opacity: 1;" transform=" matrix(1 0 0 1 0 0) " stroke-linecap="round" />
	<path d="M 66.797 41.681 c -0.499 0 -0.931 -0.373 -0.992 -0.88 c -0.065 -0.549 0.325 -1.047 0.873 -1.113 l 2.891 -0.349 c 0.555 -0.067 1.047 0.326 1.113 0.873 c 0.065 0.549 -0.325 1.047 -0.873 1.113 l -2.891 0.349 C 66.878 41.679 66.838 41.681 66.797 41.681 z" style="stroke: none; stroke-width: 1; stroke-dasharray: none; stroke-linecap: butt; stroke-linejoin: miter; stroke-miterlimit: 10; fill: rgb(63,64,66); fill-rule: nonzero; opacity: 1;" transform=" matrix(1 0 0 1 0 0) " stroke-linecap="round" />
	<path d="M 69.155 45.163 c -0.499 0 -0.931 -0.373 -0.992 -0.88 c -0.065 -0.549 0.325 -1.047 0.873 -1.113 l 2.307 -0.278 c 0.556 -0.063 1.047 0.326 1.113 0.873 c 0.065 0.549 -0.325 1.047 -0.873 1.113 l -2.307 0.278 C 69.235 45.161 69.195 45.163 69.155 45.163 z" style="stroke: none; stroke-width: 1; stroke-dasharray: none; stroke-linecap: butt; stroke-linejoin: miter; stroke-miterlimit: 10; fill: rgb(63,64,66); fill-rule: nonzero; opacity: 1;" transform=" matrix(1 0 0 1 0 0) " stroke-linecap="round" />
	<path d="M 71.822 48.851 c -0.499 0 -0.931 -0.372 -0.992 -0.88 c -0.065 -0.549 0.325 -1.047 0.873 -1.113 l 1.715 -0.207 c 0.552 -0.062 1.047 0.325 1.113 0.873 c 0.065 0.549 -0.325 1.047 -0.873 1.113 l -1.715 0.207 C 71.902 48.849 71.862 48.851 71.822 48.851 z" style="stroke: none; stroke-width: 1; stroke-dasharray: none; stroke-linecap: butt; stroke-linejoin: miter; stroke-miterlimit: 10; fill: rgb(63,64,66); fill-rule: nonzero; opacity: 1;" transform=" matrix(1 0 0 1 0 0) " stroke-linecap="round" />
	<path d="M 66.733 75.634 H 1 c -0.552 0 -1 -0.447 -1 -1 s 0.448 -1 1 -1 h 65.733 c 0.553 0 1 0.447 1 1 S 67.286 75.634 66.733 75.634 z" style="stroke: none; stroke-width: 1; stroke-dasharray: none; stroke-linecap: butt; stroke-linejoin: miter; stroke-miterlimit: 10; fill: rgb(63,64,66); fill-rule: nonzero; opacity: 1;" transform=" matrix(1 0 0 1 0 0) " stroke-linecap="round" />
	<path d="M 49.139 64.051 H 1 c -0.552 0 -1 -0.447 -1 -1 s 0.448 -1 1 -1 h 48.139 c 0.552 0 1 0.447 1 1 S 49.691 64.051 49.139 64.051 z" style="stroke: none; stroke-width: 1; stroke-dasharray: none; stroke-linecap: butt; stroke-linejoin: miter; stroke-miterlimit: 10; fill: rgb(63,64,66); fill-rule: nonzero; opacity: 1;" transform=" matrix(1 0 0 1 0 0) " stroke-linecap="round" />
	<path d="M 34.111 52.468 H 1 c -0.552 0 -1 -0.447 -1 -1 s 0.448 -1 1 -1 h 33.111 c 0.552 0 1 0.447 1 1 S 34.663 52.468 34.111 52.468 z" style="stroke: none; stroke-width: 1; stroke-dasharray: none; stroke-linecap: butt; stroke-linejoin: miter; stroke-miterlimit: 10; fill: rgb(63,64,66); fill-rule: nonzero; opacity: 1;" transform=" matrix(1 0 0 1 0 0) " stroke-linecap="round" />
</g>
</g>
</svg>